<?xml version="1.0" encoding="UTF-8"?>
<!DOCTYPE svg PUBLIC "-//W3C//DTD SVG 1.1//EN" "http://www.w3.org/Graphics/SVG/1.1/DTD/svg11.dtd">
<svg xmlns="http://www.w3.org/2000/svg" version="1.1" width="512px" height="512px" style="shape-rendering:geometricPrecision; text-rendering:geometricPrecision; image-rendering:optimizeQuality; fill-rule:evenodd; clip-rule:evenodd" xmlns:xlink="http://www.w3.org/1999/xlink">
<g><path style="opacity:1" fill="#428fde" d="M 1.5,88.5 C 170.833,88.5 340.167,88.5 509.5,88.5C 509.5,200.833 509.5,313.167 509.5,425.5C 340.167,425.5 170.833,425.5 1.5,425.5C 1.5,313.167 1.5,200.833 1.5,88.5 Z"/></g>
<g><path style="opacity:1" fill="#5694d0" d="M 213.5,186.5 C 209.859,189.805 206.192,193.138 202.5,196.5C 202.238,195.022 202.571,193.689 203.5,192.5C 206.303,191.37 207.97,189.37 208.5,186.5C 210.167,186.5 211.833,186.5 213.5,186.5 Z"/></g>
<g><path style="opacity:1" fill="#eef7fa" d="M 323.5,187.5 C 326.904,191.76 329.238,196.594 330.5,202C 330.167,202.5 329.833,203 329.5,203.5C 323.089,199.589 318.256,194.256 315,187.5C 313.296,185.627 311.463,183.96 309.5,182.5C 309.369,181.624 309.702,180.957 310.5,180.5C 315.047,182.604 319.38,184.937 323.5,187.5 Z"/></g>
<g><path style="opacity:1" fill="#eaf5f9" d="M 195.5,189.5 C 191.57,195.265 186.737,200.265 181,204.5C 180.991,199.359 182.491,194.693 185.5,190.5C 189.607,185.938 194.607,182.605 200.5,180.5C 201.521,181.002 201.688,181.668 201,182.5C 198.546,184.441 196.713,186.775 195.5,189.5 Z"/></g>
<g><path style="opacity:1" fill="#5092d7" d="M 309.5,182.5 C 311.463,183.96 313.296,185.627 315,187.5C 318.256,194.256 323.089,199.589 329.5,203.5C 329.833,203 330.167,202.5 330.5,202C 329.238,196.594 326.904,191.76 323.5,187.5C 325.801,188.06 328.134,188.56 330.5,189C 331.252,189.671 331.586,190.504 331.5,191.5C 327.484,188.748 326.984,189.081 330,192.5C 331.411,194.65 332.245,196.984 332.5,199.5C 333.036,202.698 332.369,205.365 330.5,207.5C 325.725,205.016 321.559,201.683 318,197.5C 318.025,199.92 318.691,202.253 320,204.5C 322.001,207.331 324.167,209.997 326.5,212.5C 325.735,215.096 325.401,217.763 325.5,220.5C 324.5,220.5 323.5,220.5 322.5,220.5C 318.269,209.574 311.936,199.908 303.5,191.5C 306.523,191.895 307.523,190.895 306.5,188.5C 308.415,186.929 309.415,184.929 309.5,182.5 Z"/></g>
<g><path style="opacity:1" fill="#5c97d2" d="M 195.5,189.5 C 193.923,193.197 194.256,196.697 196.5,200C 197.448,200.483 198.448,200.649 199.5,200.5C 198.876,202.754 197.543,204.421 195.5,205.5C 195.879,202.433 194.879,201.433 192.5,202.5C 193.218,200.863 193.384,199.197 193,197.5C 190.079,201.092 186.579,203.925 182.5,206C 179.628,208.537 177.128,211.37 175,214.5C 175.894,208.5 177.227,202.5 179,196.5C 179.792,193.894 181.292,191.894 183.5,190.5C 184.167,190.5 184.833,190.5 185.5,190.5C 182.491,194.693 180.991,199.359 181,204.5C 186.737,200.265 191.57,195.265 195.5,189.5 Z"/></g>
<g><path style="opacity:1" fill="#edf7f9" d="M 183.5,190.5 C 181.292,191.894 179.792,193.894 179,196.5C 177.227,202.5 175.894,208.5 175,214.5C 177.128,211.37 179.628,208.537 182.5,206C 186.579,203.925 190.079,201.092 193,197.5C 193.384,199.197 193.218,200.863 192.5,202.5C 189.844,205.794 187.178,209.127 184.5,212.5C 179.238,214.796 175.238,218.463 172.5,223.5C 171.509,216.687 171.175,209.687 171.5,202.5C 172.227,200.046 173.227,197.713 174.5,195.5C 176.832,193.34 179.332,191.34 182,189.5C 182.765,189.57 183.265,189.903 183.5,190.5 Z"/></g>
<g><path style="opacity:1" fill="#b4d6ec" d="M 171.5,202.5 C 171.175,209.687 171.509,216.687 172.5,223.5C 172.44,224.043 172.107,224.376 171.5,224.5C 170.181,217.01 170.181,209.677 171.5,202.5 Z"/></g>
<g><path style="opacity:1" fill="#b7d9ef" d="M 339.5,203.5 C 340.819,210.344 340.819,217.344 339.5,224.5C 338.893,224.376 338.56,224.043 338.5,223.5C 339.491,217.021 339.824,210.354 339.5,203.5 Z"/></g>
<g><path style="opacity:1" fill="#ecf7f9" d="M 331.5,191.5 C 332.795,192.488 334.128,193.488 335.5,194.5C 337.644,197.122 338.977,200.122 339.5,203.5C 339.824,210.354 339.491,217.021 338.5,223.5C 335.178,219.181 331.178,215.515 326.5,212.5C 324.167,209.997 322.001,207.331 320,204.5C 318.691,202.253 318.025,199.92 318,197.5C 321.559,201.683 325.725,205.016 330.5,207.5C 332.5,209.671 334.334,212.004 336,214.5C 336.167,214 336.333,213.5 336.5,213C 335.32,208.328 333.986,203.828 332.5,199.5C 332.245,196.984 331.411,194.65 330,192.5C 326.984,189.081 327.484,188.748 331.5,191.5 Z"/></g>
<g><path style="opacity:1" fill="#6fa1d1" d="M 332.5,199.5 C 333.986,203.828 335.32,208.328 336.5,213C 336.333,213.5 336.167,214 336,214.5C 334.334,212.004 332.5,209.671 330.5,207.5C 332.369,205.365 333.036,202.698 332.5,199.5 Z"/></g>
<g><path style="opacity:1" fill="#4990da" d="M 195.5,205.5 C 194.773,207.954 193.773,210.287 192.5,212.5C 190.952,212.821 190.285,213.821 190.5,215.5C 188.801,215.66 187.134,215.494 185.5,215C 184.748,214.329 184.414,213.496 184.5,212.5C 187.178,209.127 189.844,205.794 192.5,202.5C 194.879,201.433 195.879,202.433 195.5,205.5 Z"/></g>
<g><path style="opacity:1" fill="#5793d4" d="M 335.5,194.5 C 338.55,195.242 340.217,197.242 340.5,200.5C 345.646,203.312 348.313,207.645 348.5,213.5C 349.117,213.611 349.617,213.944 350,214.5C 350.174,219.684 350.674,224.684 351.5,229.5C 351.5,231.833 351.5,234.167 351.5,236.5C 349.834,241.3 347.667,245.966 345,250.5C 344.178,253.117 343.678,255.784 343.5,258.5C 342.833,257.5 342.167,256.5 341.5,255.5C 341.477,253.073 340.977,250.74 340,248.5C 336.897,243.731 334.231,238.731 332,233.5C 331.505,235.473 331.338,237.473 331.5,239.5C 330.926,235.836 330.093,232.169 329,228.5C 328,228.833 327,229.167 326,229.5C 325.506,231.134 325.34,232.801 325.5,234.5C 324.509,229.956 323.509,225.289 322.5,220.5C 323.5,220.5 324.5,220.5 325.5,220.5C 325.401,217.763 325.735,215.096 326.5,212.5C 331.178,215.515 335.178,219.181 338.5,223.5C 338.56,224.043 338.893,224.376 339.5,224.5C 340.819,217.344 340.819,210.344 339.5,203.5C 338.977,200.122 337.644,197.122 335.5,194.5 Z"/></g>
<g><path style="opacity:1" fill="#bddef2" d="M 353.5,245.5 C 354.055,241.988 353.388,238.988 351.5,236.5C 351.5,234.167 351.5,231.833 351.5,229.5C 352.876,229.747 353.71,231.081 354,233.5C 354.812,237.689 354.645,241.689 353.5,245.5 Z"/></g>
<g><path style="opacity:1" fill="#eff8fa" d="M 348.5,213.5 C 349.567,218.782 349.733,224.115 349,229.5C 346.616,235.319 344.616,241.319 343,247.5C 338.762,239.59 334.095,231.924 329,224.5C 327.279,221.685 326.612,218.685 327,215.5C 333.13,220.624 338.13,226.624 342,233.5C 342.667,224.167 343.333,214.833 344,205.5C 345.605,208.191 347.105,210.858 348.5,213.5 Z"/></g>
<g><path style="opacity:1" fill="#4f91d3" d="M 322.5,262.5 C 324.566,253.639 325.566,244.639 325.5,235.5C 326.302,234.048 326.802,232.382 327,230.5C 327.76,234.225 327.593,237.892 326.5,241.5C 329.023,244.53 328.857,247.53 326,250.5C 326.123,255.008 324.956,259.008 322.5,262.5 Z"/></g>
<g><path style="opacity:1" fill="#f0f9fa" d="M 341.5,255.5 C 341.336,258.187 341.503,260.854 342,263.5C 343.009,261.975 343.509,260.308 343.5,258.5C 343.678,255.784 344.178,253.117 345,250.5C 347.667,245.966 349.834,241.3 351.5,236.5C 353.388,238.988 354.055,241.988 353.5,245.5C 353.296,248.518 352.963,251.518 352.5,254.5C 349.018,261.165 344.518,267.165 339,272.5C 338.667,269.5 338.333,266.5 338,263.5C 335.253,255.888 333.086,248.221 331.5,240.5C 331.5,240.167 331.5,239.833 331.5,239.5C 331.338,237.473 331.505,235.473 332,233.5C 334.231,238.731 336.897,243.731 340,248.5C 340.977,250.74 341.477,253.073 341.5,255.5 Z"/></g>
<g><path style="opacity:1" fill="#5492d5" d="M 174.5,195.5 C 173.227,197.713 172.227,200.046 171.5,202.5C 170.181,209.677 170.181,217.01 171.5,224.5C 172.107,224.376 172.44,224.043 172.5,223.5C 175.238,218.463 179.238,214.796 184.5,212.5C 184.414,213.496 184.748,214.329 185.5,215C 187.134,215.494 188.801,215.66 190.5,215.5C 190.285,213.821 190.952,212.821 192.5,212.5C 185.715,224.958 183.715,238.291 186.5,252.5C 185.18,250.264 183.847,247.93 182.5,245.5C 183.362,243.913 184.029,242.246 184.5,240.5C 183.754,236.868 183.421,233.202 183.5,229.5C 182.5,229.5 181.5,229.5 180.5,229.5C 180.677,234.866 180.344,240.2 179.5,245.5C 180.414,251.144 181.081,256.811 181.5,262.5C 180.531,260.337 179.698,258.004 179,255.5C 176.748,265.105 176.081,274.771 177,284.5C 172.409,277.905 167.076,271.905 161,266.5C 160.153,264.807 159.32,263.14 158.5,261.5C 158.167,260.167 157.833,258.833 157.5,257.5C 158.404,256.791 158.737,255.791 158.5,254.5C 162.059,261.059 166.392,267.059 171.5,272.5C 171.783,273.289 172.283,273.956 173,274.5C 173.498,271.183 173.665,267.85 173.5,264.5C 175.646,256.943 177.479,249.276 179,241.5C 179.667,239.167 179.667,236.833 179,234.5C 174.005,241.491 170.339,249.158 168,257.5C 165.543,250.467 162.876,243.467 160,236.5C 159.888,227.548 158.722,227.215 156.5,235.5C 155.349,230.35 155.183,225.016 156,219.5C 156.333,222.833 156.667,226.167 157,229.5C 157.333,226.833 157.667,224.167 158,221.5C 159.836,216.153 162.336,211.153 165.5,206.5C 163.867,201.741 164.7,197.408 168,193.5C 168.495,195.473 168.662,197.473 168.5,199.5C 169.5,199.5 170.5,199.5 171.5,199.5C 171.088,197.027 172.088,195.694 174.5,195.5 Z"/></g>
<g><path style="opacity:1" fill="#f1f9fa" d="M 165.5,206.5 C 166.117,206.389 166.617,206.056 167,205.5C 167.755,214.827 168.422,224.16 169,233.5C 172.87,226.624 177.87,220.624 184,215.5C 184.388,218.685 183.721,221.685 182,224.5C 176.905,231.924 172.238,239.59 168,247.5C 166.897,242.628 165.23,237.962 163,233.5C 160.5,224.166 161.333,215.166 165.5,206.5 Z"/></g>
<g><path style="opacity:1" fill="#edf6f9" d="M 173.5,264.5 C 172.833,267.167 172.167,269.833 171.5,272.5C 166.392,267.059 162.059,261.059 158.5,254.5C 157.108,248.252 156.442,241.918 156.5,235.5C 158.722,227.215 159.888,227.548 160,236.5C 162.876,243.467 165.543,250.467 168,257.5C 170.339,249.158 174.005,241.491 179,234.5C 179.667,236.833 179.667,239.167 179,241.5C 177.479,249.276 175.646,256.943 173.5,264.5 Z"/></g>
<g><path style="opacity:1" fill="#94c4e9" d="M 157.5,257.5 C 157.833,258.833 158.167,260.167 158.5,261.5C 157.566,262.568 157.232,263.901 157.5,265.5C 156.167,262.833 156.167,260.167 157.5,257.5 Z"/></g>
<g><path style="opacity:1" fill="#93c9e8" d="M 353.5,257.5 C 354.477,260.287 354.81,263.287 354.5,266.5C 354.167,266.5 353.833,266.5 353.5,266.5C 353.784,264.585 353.451,262.919 352.5,261.5C 353.234,260.292 353.567,258.959 353.5,257.5 Z"/></g>
<g><path style="opacity:1" fill="#438ede" d="M 186.5,252.5 C 186.5,253.5 186.5,254.5 186.5,255.5C 188.012,265.36 187.346,265.694 184.5,256.5C 184.167,257.167 183.833,257.833 183.5,258.5C 184.312,260.623 184.978,262.79 185.5,265C 185.167,265.833 184.833,266.667 184.5,267.5C 183.859,266.007 182.859,265.007 181.5,264.5C 181.5,263.833 181.5,263.167 181.5,262.5C 181.081,256.811 180.414,251.144 179.5,245.5C 180.344,240.2 180.677,234.866 180.5,229.5C 181.5,229.5 182.5,229.5 183.5,229.5C 183.421,233.202 183.754,236.868 184.5,240.5C 184.029,242.246 183.362,243.913 182.5,245.5C 183.847,247.93 185.18,250.264 186.5,252.5 Z"/></g>
<g><path style="opacity:1" fill="#5895d4" d="M 331.5,240.5 C 333.086,248.221 335.253,255.888 338,263.5C 338.333,266.5 338.667,269.5 339,272.5C 344.518,267.165 349.018,261.165 352.5,254.5C 352.263,255.791 352.596,256.791 353.5,257.5C 353.567,258.959 353.234,260.292 352.5,261.5C 351.68,263.14 350.847,264.807 350,266.5C 345.297,271.035 340.797,275.702 336.5,280.5C 335.833,277.167 335.167,273.833 334.5,270.5C 333.604,265.353 332.604,260.353 331.5,255.5C 332.105,250.588 332.105,245.588 331.5,240.5 Z"/></g>
<g><path style="opacity:1" fill="#aac1d7" d="M 341.5,255.5 C 342.167,256.5 342.833,257.5 343.5,258.5C 343.509,260.308 343.009,261.975 342,263.5C 341.503,260.854 341.336,258.187 341.5,255.5 Z"/></g>
<g><path style="opacity:1" fill="#fafcf7" d="M 182.5,276.5 C 182.5,277.167 182.5,277.833 182.5,278.5C 181.651,293.51 180.318,293.844 178.5,279.5C 178.759,275.118 179.092,270.451 179.5,265.5C 180.769,267.695 180.769,269.861 179.5,272C 180.053,273.878 181.053,275.378 182.5,276.5 Z"/></g>
<g><path style="opacity:1" fill="#498fdb" d="M 331.5,239.5 C 331.5,239.833 331.5,240.167 331.5,240.5C 332.105,245.588 332.105,250.588 331.5,255.5C 329.302,267.838 327.302,280.172 325.5,292.5C 324.414,292.38 323.747,291.713 323.5,290.5C 324.346,286.882 324.68,283.215 324.5,279.5C 326.009,274.556 325.176,274.222 322,278.5C 319.166,283.119 316.666,287.786 314.5,292.5C 313.127,292.343 311.793,292.51 310.5,293C 309.778,295.741 308.112,296.741 305.5,296C 306.308,295.692 306.975,295.192 307.5,294.5C 306.388,293.735 305.721,292.735 305.5,291.5C 312.977,282.876 318.644,273.209 322.5,262.5C 324.956,259.008 326.123,255.008 326,250.5C 328.857,247.53 329.023,244.53 326.5,241.5C 327.593,237.892 327.76,234.225 327,230.5C 326.802,232.382 326.302,234.048 325.5,235.5C 325.5,235.167 325.5,234.833 325.5,234.5C 325.34,232.801 325.506,231.134 326,229.5C 327,229.167 328,228.833 329,228.5C 330.093,232.169 330.926,235.836 331.5,239.5 Z"/></g>
<g><path style="opacity:1" fill="#f0f9fa" d="M 331.5,255.5 C 332.604,260.353 333.604,265.353 334.5,270.5C 335.07,276.151 334.07,281.484 331.5,286.5C 332.355,287.293 333.189,286.96 334,285.5C 334.847,283.807 335.68,282.14 336.5,280.5C 340.797,275.702 345.297,271.035 350,266.5C 350.847,264.807 351.68,263.14 352.5,261.5C 353.451,262.919 353.784,264.585 353.5,266.5C 351.456,275.058 346.789,281.891 339.5,287C 334.581,290.042 329.748,293.209 325,296.5C 324.421,295.072 324.588,293.738 325.5,292.5C 327.302,280.172 329.302,267.838 331.5,255.5 Z"/></g>
<g><path style="opacity:1" fill="#83a6c8" d="M 334.5,270.5 C 335.167,273.833 335.833,277.167 336.5,280.5C 335.68,282.14 334.847,283.807 334,285.5C 333.189,286.96 332.355,287.293 331.5,286.5C 334.07,281.484 335.07,276.151 334.5,270.5 Z"/></g>
<g><path style="opacity:1" fill="#c8e7f5" d="M 303.5,191.5 C 311.936,199.908 318.269,209.574 322.5,220.5C 323.509,225.289 324.509,229.956 325.5,234.5C 325.5,234.833 325.5,235.167 325.5,235.5C 325.566,244.639 324.566,253.639 322.5,262.5C 318.644,273.209 312.977,282.876 305.5,291.5C 304.5,291.833 303.833,292.5 303.5,293.5C 298.477,297.673 293.144,301.34 287.5,304.5C 283.261,305.796 279.261,307.462 275.5,309.5C 247.108,316.03 222.774,309.03 202.5,288.5C 194.749,278.665 189.416,267.665 186.5,255.5C 186.5,254.5 186.5,253.5 186.5,252.5C 183.715,238.291 185.715,224.958 192.5,212.5C 193.773,210.287 194.773,207.954 195.5,205.5C 197.543,204.421 198.876,202.754 199.5,200.5C 200.488,199.205 201.488,197.872 202.5,196.5C 206.192,193.138 209.859,189.805 213.5,186.5C 244.747,166.429 274.747,168.096 303.5,191.5 Z"/></g>
<g><path style="opacity:1" fill="#5e95d0" d="M 284.5,273.5 C 285.239,273.369 285.906,273.536 286.5,274C 287.803,276.966 289.803,279.3 292.5,281C 290.394,283.677 288.061,285.177 285.5,285.5C 284.381,283.516 284.714,281.683 286.5,280C 285.43,278.291 284.097,276.791 282.5,275.5C 282.855,274.478 283.522,273.811 284.5,273.5 Z"/></g>
<g><path style="opacity:1" fill="#4b90db" d="M 196.5,266.5 C 199.995,267.32 202.662,269.32 204.5,272.5C 206.95,274.287 209.616,275.62 212.5,276.5C 214.109,277.898 214.942,279.565 215,281.5C 212.833,283.667 210.667,285.833 208.5,288C 207.5,288.667 206.5,288.667 205.5,288C 200.463,282.471 196.463,276.305 193.5,269.5C 194.5,268.5 195.5,267.5 196.5,266.5 Z"/></g>
<g><path style="opacity:1" fill="#478edb" d="M 242.5,267.5 C 243.167,267.833 243.833,268.167 244.5,268.5C 245.234,269.708 245.567,271.041 245.5,272.5C 244.5,272.5 243.5,272.5 242.5,272.5C 242.262,275.408 243.262,277.742 245.5,279.5C 244.675,280.386 243.675,280.719 242.5,280.5C 237.611,279.652 233.611,277.319 230.5,273.5C 230.586,272.504 230.252,271.671 229.5,271C 233.999,270.139 238.332,268.972 242.5,267.5 Z"/></g>
<g><path style="opacity:1" fill="#6397cf" d="M 244.5,268.5 C 245.833,268.833 247.167,269.167 248.5,269.5C 243.972,275.43 245.305,279.097 252.5,280.5C 252.918,281.222 253.584,281.722 254.5,282C 250.219,282.798 246.219,282.298 242.5,280.5C 243.675,280.719 244.675,280.386 245.5,279.5C 243.262,277.742 242.262,275.408 242.5,272.5C 243.5,272.5 244.5,272.5 245.5,272.5C 245.567,271.041 245.234,269.708 244.5,268.5 Z"/></g>
<g><path style="opacity:1" fill="#4f92d8" d="M 242.5,267.5 C 238.332,268.972 233.999,270.139 229.5,271C 230.252,271.671 230.586,272.504 230.5,273.5C 230.167,273.5 229.833,273.5 229.5,273.5C 228.833,273.5 228.5,273.167 228.5,272.5C 228.351,271.448 228.517,270.448 229,269.5C 231.403,268.219 233.237,266.386 234.5,264C 237.464,264.311 240.131,265.478 242.5,267.5 Z"/></g>
<g><path style="opacity:1" fill="#4790db" d="M 311.5,243.5 C 315.5,243.5 319.5,243.5 323.5,243.5C 322.676,260.483 316.676,275.316 305.5,288C 304.5,288.667 303.5,288.667 302.5,288C 300.167,285.667 297.833,283.333 295.5,281C 302.95,273.266 307.617,264.1 309.5,253.5C 311.175,250.493 311.841,247.16 311.5,243.5 Z"/></g>
<g><path style="opacity:1" fill="#c9e5f2" d="M 242.5,244.5 C 243.302,245.952 243.802,247.618 244,249.5C 244.333,249.833 244.667,250.167 245,250.5C 245.278,249.584 245.778,248.918 246.5,248.5C 246.263,249.791 246.596,250.791 247.5,251.5C 248.378,254.287 250.378,255.62 253.5,255.5C 254.5,255.167 255.5,254.833 256.5,254.5C 256.886,250.15 259.219,248.483 263.5,249.5C 262.923,251.652 261.756,251.985 260,250.5C 261.02,252.619 261.354,254.953 261,257.5C 257.905,258.425 256.072,260.425 255.5,263.5C 257.591,263.682 259.591,263.348 261.5,262.5C 262.522,262.855 263.189,263.522 263.5,264.5C 254.572,265.272 254.906,266.272 264.5,267.5C 259.12,267.053 253.786,267.719 248.5,269.5C 247.167,269.167 245.833,268.833 244.5,268.5C 243.833,268.167 243.167,267.833 242.5,267.5C 240.131,265.478 237.464,264.311 234.5,264C 233.237,266.386 231.403,268.219 229,269.5C 228.517,270.448 228.351,271.448 228.5,272.5C 223.786,268.724 221.786,263.724 222.5,257.5C 223.224,261.187 224.224,264.854 225.5,268.5C 229.313,267.37 232.313,265.037 234.5,261.5C 231.711,258.255 229.711,254.588 228.5,250.5C 228.5,249.833 228.5,249.167 228.5,248.5C 230.042,247.699 231.708,247.366 233.5,247.5C 235.781,249.428 238.447,250.428 241.5,250.5C 241.585,251.995 240.919,252.995 239.5,253.5C 237.17,250.478 234.17,248.811 230.5,248.5C 231.179,252.856 233.179,256.523 236.5,259.5C 238.817,257.684 240.984,255.684 243,253.5C 243.579,252.072 243.412,250.738 242.5,249.5C 242.5,247.833 242.5,246.167 242.5,244.5 Z"/></g>
<g><path style="opacity:1" fill="#86a9ce" d="M 192.5,258.5 C 192.211,261.649 192.711,264.649 194,267.5C 194.601,265.641 195.434,265.308 196.5,266.5C 195.5,267.5 194.5,268.5 193.5,269.5C 192.264,267.351 191.264,265.018 190.5,262.5C 191.167,261.167 191.833,259.833 192.5,258.5 Z"/></g>
<g><path style="opacity:1" fill="#4a91d9" d="M 298.5,243.5 C 301.833,243.5 305.167,243.5 308.5,243.5C 308.5,246.167 308.5,248.833 308.5,251.5C 307.946,254.746 306.946,257.746 305.5,260.5C 306.549,255.869 307.049,251.202 307,246.5C 304.894,244.709 302.394,244.042 299.5,244.5C 299.428,247.193 299.095,249.86 298.5,252.5C 298.696,254.286 299.529,255.619 301,256.5C 301.333,258.833 301.667,261.167 302,263.5C 302.77,264.598 303.603,264.598 304.5,263.5C 302.264,269.632 298.764,274.965 294,279.5C 293.667,277.833 293.333,276.167 293,274.5C 291.605,273.185 290.605,273.519 290,275.5C 287.793,274.003 287.126,272.003 288,269.5C 293.191,263.431 296.358,256.431 297.5,248.5C 297.216,246.585 297.549,244.919 298.5,243.5 Z"/></g>
<g><path style="opacity:1" fill="#5992cb" d="M 263.5,264.5 C 263.833,264.5 264.167,264.5 264.5,264.5C 265.833,265.5 265.833,266.5 264.5,267.5C 254.906,266.272 254.572,265.272 263.5,264.5 Z"/></g>
<g><path style="opacity:1" fill="#4c90d8" d="M 244.5,254.5 C 249.646,254.885 252.979,257.552 254.5,262.5C 253.675,263.386 252.675,263.719 251.5,263.5C 251.33,264.822 251.663,265.989 252.5,267C 247.102,268.219 242.602,266.719 239,262.5C 238.333,261.5 238.333,260.5 239,259.5C 241.191,258.167 243.024,256.5 244.5,254.5 Z"/></g>
<g><path style="opacity:1" fill="#5692d3" d="M 292.5,259.5 C 290.678,262.472 288.844,265.472 287,268.5C 286.329,269.252 285.496,269.586 284.5,269.5C 284.5,268.167 284.5,266.833 284.5,265.5C 285.583,265.461 286.583,265.127 287.5,264.5C 288.167,261.833 288.833,259.167 289.5,256.5C 290.141,257.993 291.141,258.993 292.5,259.5 Z"/></g>
<g><path style="opacity:1" fill="#8baecb" d="M 264.5,267.5 C 265.833,266.5 265.833,265.5 264.5,264.5C 264.869,262.559 265.536,260.725 266.5,259C 267.944,258.219 269.277,258.386 270.5,259.5C 268.851,260.148 267.518,261.148 266.5,262.5C 267.391,263.59 268.391,263.59 269.5,262.5C 270.521,263.002 270.688,263.668 270,264.5C 268.259,265.758 266.426,266.758 264.5,267.5 Z"/></g>
<g><path style="opacity:1" fill="#4c90d8" d="M 221.5,244.5 C 223.08,247.182 224.246,250.182 225,253.5C 225.219,252.062 225.719,250.729 226.5,249.5C 227.183,249.863 227.85,250.196 228.5,250.5C 229.711,254.588 231.711,258.255 234.5,261.5C 232.313,265.037 229.313,267.37 225.5,268.5C 224.224,264.854 223.224,261.187 222.5,257.5C 221.945,254.904 220.945,252.571 219.5,250.5C 219.366,248.708 219.699,247.042 220.5,245.5C 221.167,245.5 221.5,245.167 221.5,244.5 Z"/></g>
<g><path style="opacity:1" fill="#9ab1be" d="M 281.5,256.5 C 281.5,257.167 281.5,257.833 281.5,258.5C 280.526,259.635 279.359,260.635 278,261.5C 278.077,259.228 279.243,257.562 281.5,256.5 Z"/></g>
<g><path style="opacity:1" fill="#a0bbde" d="M 192.5,258.5 C 194.265,257.539 196.265,257.205 198.5,257.5C 198.189,258.478 197.522,259.145 196.5,259.5C 195.264,258.754 193.93,258.421 192.5,258.5 Z"/></g>
<g><path style="opacity:1" fill="#c0e0f2" d="M 212.5,243.5 C 209.167,243.5 205.833,243.5 202.5,243.5C 202.198,246.059 202.532,248.393 203.5,250.5C 203.337,252.857 203.503,255.19 204,257.5C 205.011,258.337 206.178,258.67 207.5,258.5C 205.95,259.72 204.284,259.72 202.5,258.5C 201.019,253.988 200.352,249.322 200.5,244.5C 202.384,243.325 204.551,242.658 207,242.5C 209.033,242.506 210.866,242.839 212.5,243.5 Z"/></g>
<g><path style="opacity:1" fill="#679bd0" d="M 285.5,253.5 C 283.774,255.82 283.107,258.487 283.5,261.5C 284.675,261.281 285.675,261.614 286.5,262.5C 285.807,263.518 285.141,264.518 284.5,265.5C 282.917,263.492 281.917,261.159 281.5,258.5C 281.5,257.833 281.5,257.167 281.5,256.5C 281.694,254.088 283.027,253.088 285.5,253.5 Z"/></g>
<g><path style="opacity:1" fill="#5392d4" d="M 241.5,250.5 C 241.5,249.833 241.833,249.5 242.5,249.5C 243.412,250.738 243.579,252.072 243,253.5C 240.984,255.684 238.817,257.684 236.5,259.5C 233.179,256.523 231.179,252.856 230.5,248.5C 234.17,248.811 237.17,250.478 239.5,253.5C 240.919,252.995 241.585,251.995 241.5,250.5 Z"/></g>
<g><path style="opacity:1" fill="#438ee2" d="M 285.5,253.5 C 287.527,253.338 289.527,253.505 291.5,254C 292.337,255.011 292.67,256.178 292.5,257.5C 292.5,258.167 292.5,258.833 292.5,259.5C 291.141,258.993 290.141,257.993 289.5,256.5C 288.833,259.167 288.167,261.833 287.5,264.5C 286.583,265.127 285.583,265.461 284.5,265.5C 285.141,264.518 285.807,263.518 286.5,262.5C 285.675,261.614 284.675,261.281 283.5,261.5C 283.107,258.487 283.774,255.82 285.5,253.5 Z"/></g>
<g><path style="opacity:1" fill="#5693d3" d="M 296.5,245.5 C 295.784,249.692 294.451,253.692 292.5,257.5C 292.67,256.178 292.337,255.011 291.5,254C 289.527,253.505 287.527,253.338 285.5,253.5C 287.663,252.531 289.996,251.698 292.5,251C 289.941,249.492 288.274,247.325 287.5,244.5C 288.793,243.842 290.293,243.508 292,243.5C 293.986,243.569 295.486,244.235 296.5,245.5 Z"/></g>
<g><path style="opacity:1" fill="#4a8ed9" d="M 210.5,249.5 C 208.874,252.246 208.207,255.246 208.5,258.5C 208.167,258.5 207.833,258.5 207.5,258.5C 206.178,258.67 205.011,258.337 204,257.5C 203.503,255.19 203.337,252.857 203.5,250.5C 203.5,248.5 203.5,246.5 203.5,244.5C 206.187,244.336 208.854,244.503 211.5,245C 210.62,246.356 210.286,247.856 210.5,249.5 Z"/></g>
<g><path style="opacity:1" fill="#f9fcfc" d="M 216.5,250.5 C 217.5,250.5 218.5,250.5 219.5,250.5C 220.945,252.571 221.945,254.904 222.5,257.5C 221.786,263.724 223.786,268.724 228.5,272.5C 228.5,273.167 228.833,273.5 229.5,273.5C 229.5,275.167 229.5,276.833 229.5,278.5C 227.901,278.232 226.568,278.566 225.5,279.5C 220.826,279.252 216.493,278.252 212.5,276.5C 209.616,275.62 206.95,274.287 204.5,272.5C 202.662,269.32 199.995,267.32 196.5,266.5C 195.434,265.308 194.601,265.641 194,267.5C 192.711,264.649 192.211,261.649 192.5,258.5C 193.93,258.421 195.264,258.754 196.5,259.5C 197.522,259.145 198.189,258.478 198.5,257.5C 199.708,258.234 201.041,258.567 202.5,258.5C 204.284,259.72 205.95,259.72 207.5,258.5C 207.833,258.5 208.167,258.5 208.5,258.5C 209.117,258.389 209.617,258.056 210,257.5C 210.333,255.5 210.667,253.5 211,251.5C 212.829,251.435 214.662,251.102 216.5,250.5 Z"/></g>
<g><path style="opacity:1" fill="#a9cde8" d="M 298.5,243.5 C 301.962,242.518 305.629,242.185 309.5,242.5C 309.337,244.857 309.503,247.19 310,249.5C 310.191,247.292 310.691,245.292 311.5,243.5C 311.841,247.16 311.175,250.493 309.5,253.5C 309.672,252.508 309.338,251.842 308.5,251.5C 308.5,248.833 308.5,246.167 308.5,243.5C 305.167,243.5 301.833,243.5 298.5,243.5 Z"/></g>
<g><path style="opacity:1" fill="#438ee0" d="M 305.5,260.5 C 305.737,261.791 305.404,262.791 304.5,263.5C 303.603,264.598 302.77,264.598 302,263.5C 301.667,261.167 301.333,258.833 301,256.5C 299.529,255.619 298.696,254.286 298.5,252.5C 299.095,249.86 299.428,247.193 299.5,244.5C 302.394,244.042 304.894,244.709 307,246.5C 307.049,251.202 306.549,255.869 305.5,260.5 Z"/></g>
<g><path style="opacity:1" fill="#4d8fd8" d="M 199.5,243.5 C 200.167,243.5 200.5,243.833 200.5,244.5C 200.352,249.322 201.019,253.988 202.5,258.5C 201.041,258.567 199.708,258.234 198.5,257.5C 196.265,257.205 194.265,257.539 192.5,258.5C 191.833,259.833 191.167,261.167 190.5,262.5C 189.288,256.198 188.288,249.864 187.5,243.5C 191.5,243.5 195.5,243.5 199.5,243.5 Z"/></g>
<g><path style="opacity:1" fill="#749ac5" d="M 244.5,243.5 C 246.925,243.684 246.925,244.351 244.5,245.5C 245.868,246.594 247.035,246.26 248,244.5C 248.464,245.094 248.631,245.761 248.5,246.5C 248.167,247.5 247.5,248.167 246.5,248.5C 245.778,248.918 245.278,249.584 245,250.5C 244.667,250.167 244.333,249.833 244,249.5C 243.802,247.618 243.302,245.952 242.5,244.5C 242.367,241.075 243.033,240.742 244.5,243.5 Z"/></g>
<g><path style="opacity:1" fill="#5f98d3" d="M 260.5,241.5 C 262.655,243.617 263.655,246.284 263.5,249.5C 259.219,248.483 256.886,250.15 256.5,254.5C 255.5,254.833 254.5,255.167 253.5,255.5C 250.378,255.62 248.378,254.287 247.5,251.5C 251.171,251.093 253.504,249.093 254.5,245.5C 256.624,247.174 258.958,248.007 261.5,248C 259.42,246.039 259.086,243.872 260.5,241.5 Z"/></g>
<g><path style="opacity:1" fill="#7eabd4" d="M 221.5,244.5 C 223.364,243.207 225.364,243.207 227.5,244.5C 225.853,246.488 226.186,247.821 228.5,248.5C 228.5,249.167 228.5,249.833 228.5,250.5C 227.85,250.196 227.183,249.863 226.5,249.5C 225.719,250.729 225.219,252.062 225,253.5C 224.246,250.182 223.08,247.182 221.5,244.5 Z"/></g>
<g><path style="opacity:1" fill="#eef7f9" d="M 251.5,242.5 C 252.5,243.5 253.5,244.5 254.5,245.5C 253.504,249.093 251.171,251.093 247.5,251.5C 246.596,250.791 246.263,249.791 246.5,248.5C 247.5,248.167 248.167,247.5 248.5,246.5C 249.5,245.167 250.5,243.833 251.5,242.5 Z"/></g>
<g><path style="opacity:1" fill="#a9d1ec" d="M 220.5,245.5 C 219.699,247.042 219.366,248.708 219.5,250.5C 218.5,250.5 217.5,250.5 216.5,250.5C 214.436,248.34 214.102,246.007 215.5,243.5C 216.568,242.566 217.901,242.232 219.5,242.5C 219.263,243.791 219.596,244.791 220.5,245.5 Z"/></g>
<g><path style="opacity:1" fill="#dff4fa" d="M 228.5,232.5 C 227.517,233.85 226.184,234.85 224.5,235.5C 225.628,236.262 226.795,236.929 228,237.5C 228.498,240.482 228.665,243.482 228.5,246.5C 230.415,246.216 232.081,246.549 233.5,247.5C 231.708,247.366 230.042,247.699 228.5,248.5C 226.186,247.821 225.853,246.488 227.5,244.5C 225.364,243.207 223.364,243.207 221.5,244.5C 221.5,245.167 221.167,245.5 220.5,245.5C 219.596,244.791 219.263,243.791 219.5,242.5C 217.901,242.232 216.568,242.566 215.5,243.5C 214.102,246.007 214.436,248.34 216.5,250.5C 214.662,251.102 212.829,251.435 211,251.5C 210.667,253.5 210.333,255.5 210,257.5C 209.617,258.056 209.117,258.389 208.5,258.5C 208.207,255.246 208.874,252.246 210.5,249.5C 213.326,248.113 213.993,246.113 212.5,243.5C 210.866,242.839 209.033,242.506 207,242.5C 204.551,242.658 202.384,243.325 200.5,244.5C 200.5,243.833 200.167,243.5 199.5,243.5C 199.5,242.833 199.5,242.167 199.5,241.5C 200.451,240.081 200.784,238.415 200.5,236.5C 200.833,236.5 201.167,236.5 201.5,236.5C 201.5,238.167 201.5,239.833 201.5,241.5C 205.971,242.089 209.971,241.423 213.5,239.5C 213.5,238.833 213.5,238.167 213.5,237.5C 214.167,238.833 214.833,240.167 215.5,241.5C 217.199,241.66 218.866,241.494 220.5,241C 221.267,236.249 223.934,233.415 228.5,232.5 Z"/></g>
<g><path style="opacity:1" fill="#518acc" d="M 215.5,243.5 C 216.5,243.5 217.5,243.5 218.5,243.5C 217.052,249.969 216.052,249.969 215.5,243.5 Z"/></g>
<g><path style="opacity:1" fill="#5b93cb" d="M 212.5,243.5 C 213.993,246.113 213.326,248.113 210.5,249.5C 210.286,247.856 210.62,246.356 211.5,245C 208.854,244.503 206.187,244.336 203.5,244.5C 203.5,246.5 203.5,248.5 203.5,250.5C 202.532,248.393 202.198,246.059 202.5,243.5C 205.833,243.5 209.167,243.5 212.5,243.5 Z"/></g>
<g><path style="opacity:1" fill="#a8c9de" d="M 249.5,235.5 C 249.767,237.965 250.434,240.299 251.5,242.5C 250.5,243.833 249.5,245.167 248.5,246.5C 248.631,245.761 248.464,245.094 248,244.5C 247.035,246.26 245.868,246.594 244.5,245.5C 246.925,244.351 246.925,243.684 244.5,243.5C 247.198,241.428 248.865,238.762 249.5,235.5 Z"/></g>
<g><path style="opacity:1" fill="#4790de" d="M 255.5,233.5 C 258.184,235.535 259.85,238.201 260.5,241.5C 259.086,243.872 259.42,246.039 261.5,248C 258.958,248.007 256.624,247.174 254.5,245.5C 253.5,244.5 252.5,243.5 251.5,242.5C 250.434,240.299 249.767,237.965 249.5,235.5C 250.71,235.068 251.71,234.401 252.5,233.5C 253.652,232.375 254.652,232.375 255.5,233.5 Z"/></g>
<g><path style="opacity:1" fill="#70a2d1" d="M 202.5,235.5 C 202.5,237.167 202.5,238.833 202.5,240.5C 206.269,240.756 209.936,240.423 213.5,239.5C 209.971,241.423 205.971,242.089 201.5,241.5C 201.5,239.833 201.5,238.167 201.5,236.5C 201.5,235.833 201.833,235.5 202.5,235.5 Z"/></g>
<g><path style="opacity:1" fill="#6b9bd0" d="M 223.5,237.5 C 226.5,237.167 227.833,238.5 227.5,241.5C 226.167,241.5 224.833,241.5 223.5,241.5C 223.5,240.167 223.5,238.833 223.5,237.5 Z"/></g>
<g><path style="opacity:1" fill="#5393d2" d="M 322.5,234.5 C 323.468,236.607 323.802,238.941 323.5,241.5C 319.5,241.5 315.5,241.5 311.5,241.5C 310.523,238.713 310.19,235.713 310.5,232.5C 311.151,231.909 311.818,231.243 312.5,230.5C 313.184,233.616 314.184,236.616 315.5,239.5C 317.743,240.474 320.076,240.808 322.5,240.5C 322.5,238.5 322.5,236.5 322.5,234.5 Z"/></g>
<g><path style="opacity:1" fill="#679bcb" d="M 255.5,233.5 C 257.514,233.392 259.18,234.058 260.5,235.5C 261.833,237.5 261.833,239.5 260.5,241.5C 259.85,238.201 258.184,235.535 255.5,233.5 Z"/></g>
<g><path style="opacity:1" fill="#d9f0f8" d="M 304.5,214.5 C 306.647,220.274 308.647,226.274 310.5,232.5C 310.19,235.713 310.523,238.713 311.5,241.5C 311.5,242.167 311.5,242.833 311.5,243.5C 310.691,245.292 310.191,247.292 310,249.5C 309.503,247.19 309.337,244.857 309.5,242.5C 305.629,242.185 301.962,242.518 298.5,243.5C 297.549,244.919 297.216,246.585 297.5,248.5C 296.596,247.791 296.263,246.791 296.5,245.5C 295.486,244.235 293.986,243.569 292,243.5C 290.293,243.508 288.793,243.842 287.5,244.5C 286.387,243.054 286.22,241.387 287,239.5C 287.417,238.244 288.25,237.577 289.5,237.5C 289.5,236.167 289.5,234.833 289.5,233.5C 287.517,233.843 286.183,233.176 285.5,231.5C 286.973,232.071 288.64,232.071 290.5,231.5C 290.955,237.787 292.288,237.787 294.5,231.5C 294.053,228.264 292.386,225.931 289.5,224.5C 289.931,223.707 290.265,222.873 290.5,222C 288.957,219.958 287.624,217.792 286.5,215.5C 287.167,215.5 287.833,215.5 288.5,215.5C 289.667,217.041 291,218.375 292.5,219.5C 292.263,220.791 292.596,221.791 293.5,222.5C 294.11,223.391 294.443,224.391 294.5,225.5C 297.168,230.448 298.168,235.781 297.5,241.5C 301.5,241.5 305.5,241.5 309.5,241.5C 309.795,239.265 309.461,237.265 308.5,235.5C 308.552,233.097 308.219,230.764 307.5,228.5C 307.386,224.22 305.386,221.554 301.5,220.5C 302.833,220.5 304.167,220.5 305.5,220.5C 305.483,218.435 305.15,216.435 304.5,214.5 Z"/></g>
<g><path style="opacity:1" fill="#77a7d4" d="M 298.5,225.5 C 298.5,230.5 298.5,235.5 298.5,240.5C 301.833,240.5 305.167,240.5 308.5,240.5C 308.5,238.833 308.5,237.167 308.5,235.5C 309.461,237.265 309.795,239.265 309.5,241.5C 305.5,241.5 301.5,241.5 297.5,241.5C 298.168,235.781 297.168,230.448 294.5,225.5C 295.151,224.909 295.818,224.243 296.5,223.5C 297.182,224.243 297.849,224.909 298.5,225.5 Z"/></g>
<g><path style="opacity:1" fill="#6095d0" d="M 289.5,237.5 C 291.144,237.714 292.644,237.38 294,236.5C 294.402,237.872 294.902,239.205 295.5,240.5C 293.235,241.647 290.902,241.814 288.5,241C 289.337,239.989 289.67,238.822 289.5,237.5 Z"/></g>
<g><path style="opacity:1" fill="#4b90d9" d="M 229.5,230.5 C 228.662,230.842 228.328,231.508 228.5,232.5C 223.934,233.415 221.267,236.249 220.5,241C 218.866,241.494 217.199,241.66 215.5,241.5C 214.968,231.736 217.968,223.236 224.5,216C 228.696,216.988 232.03,219.488 234.5,223.5C 232.578,225.687 230.912,228.02 229.5,230.5 Z"/></g>
<g><path style="opacity:1" fill="#448edc" d="M 307.5,228.5 C 308.219,230.764 308.552,233.097 308.5,235.5C 308.5,237.167 308.5,238.833 308.5,240.5C 305.167,240.5 301.833,240.5 298.5,240.5C 298.5,235.5 298.5,230.5 298.5,225.5C 298.5,224.5 298.5,223.5 298.5,222.5C 299.873,222.343 301.207,222.51 302.5,223C 304.475,224.649 306.142,226.482 307.5,228.5 Z"/></g>
<g><path style="opacity:1" fill="#f8fbfa" d="M 252.5,233.5 C 251.71,234.401 250.71,235.068 249.5,235.5C 248.865,238.762 247.198,241.428 244.5,243.5C 243.033,240.742 242.367,241.075 242.5,244.5C 242.5,246.167 242.5,247.833 242.5,249.5C 241.833,249.5 241.5,249.833 241.5,250.5C 238.447,250.428 235.781,249.428 233.5,247.5C 232.081,246.549 230.415,246.216 228.5,246.5C 228.665,243.482 228.498,240.482 228,237.5C 226.795,236.929 225.628,236.262 224.5,235.5C 226.184,234.85 227.517,233.85 228.5,232.5C 228.328,231.508 228.662,230.842 229.5,230.5C 231.861,230.326 234.194,229.993 236.5,229.5C 237.167,229.833 237.833,230.167 238.5,230.5C 240.389,231.742 242.389,231.742 244.5,230.5C 245.5,230.5 246.5,230.5 247.5,230.5C 249.044,230.297 250.378,229.63 251.5,228.5C 252.452,230.045 252.785,231.712 252.5,233.5 Z"/></g>
<g><path style="opacity:1" fill="#f8fbfb" d="M 276.5,223.5 C 278.943,226.854 281.943,229.52 285.5,231.5C 286.183,233.176 287.517,233.843 289.5,233.5C 289.5,234.833 289.5,236.167 289.5,237.5C 288.25,237.577 287.417,238.244 287,239.5C 286.22,241.387 286.387,243.054 287.5,244.5C 288.274,247.325 289.941,249.492 292.5,251C 289.996,251.698 287.663,252.531 285.5,253.5C 283.027,253.088 281.694,254.088 281.5,256.5C 279.243,257.562 278.077,259.228 278,261.5C 279.359,260.635 280.526,259.635 281.5,258.5C 281.917,261.159 282.917,263.492 284.5,265.5C 284.5,266.833 284.5,268.167 284.5,269.5C 285.833,270.833 285.833,272.167 284.5,273.5C 283.522,273.811 282.855,274.478 282.5,275.5C 284.097,276.791 285.43,278.291 286.5,280C 284.714,281.683 284.381,283.516 285.5,285.5C 284.375,286.348 284.375,287.348 285.5,288.5C 282.29,292.025 278.456,294.692 274,296.5C 273.235,296.43 272.735,296.097 272.5,295.5C 271.205,294.512 269.872,293.512 268.5,292.5C 267.504,292.586 266.671,292.252 266,291.5C 265.844,288.809 265.011,286.476 263.5,284.5C 263.167,284.5 262.833,284.5 262.5,284.5C 260.164,281.083 256.831,279.749 252.5,280.5C 245.305,279.097 243.972,275.43 248.5,269.5C 253.786,267.719 259.12,267.053 264.5,267.5C 266.426,266.758 268.259,265.758 270,264.5C 270.688,263.668 270.521,263.002 269.5,262.5C 268.391,263.59 267.391,263.59 266.5,262.5C 267.518,261.148 268.851,260.148 270.5,259.5C 269.277,258.386 267.944,258.219 266.5,259C 265.536,260.725 264.869,262.559 264.5,264.5C 264.167,264.5 263.833,264.5 263.5,264.5C 263.189,263.522 262.522,262.855 261.5,262.5C 259.591,263.348 257.591,263.682 255.5,263.5C 256.072,260.425 257.905,258.425 261,257.5C 261.354,254.953 261.02,252.619 260,250.5C 261.756,251.985 262.923,251.652 263.5,249.5C 263.655,246.284 262.655,243.617 260.5,241.5C 261.833,239.5 261.833,237.5 260.5,235.5C 260.273,233.003 258.94,231.336 256.5,230.5C 258.281,228.454 260.281,228.12 262.5,229.5C 263.708,230.234 265.041,230.567 266.5,230.5C 266.5,229.5 266.5,228.5 266.5,227.5C 268.933,227.727 270.599,226.727 271.5,224.5C 272.896,222.627 274.563,222.294 276.5,223.5 Z"/></g>
<g><path style="opacity:1" fill="#8fa7be" d="M 271.5,265.5 C 274.43,266.623 277.43,267.623 280.5,268.5C 279.277,269.614 277.944,269.781 276.5,269C 274.24,268.451 272.574,267.284 271.5,265.5 Z"/></g>
<g><path style="opacity:1" fill="#88a1c0" d="M 270.5,254.5 C 271.973,255.072 273.307,255.905 274.5,257C 272.055,257.91 270.722,257.076 270.5,254.5 Z"/></g>
<g><path style="opacity:1" fill="#4b92d5" d="M 201.5,227.5 C 200.841,230.455 200.508,233.455 200.5,236.5C 200.784,238.415 200.451,240.081 199.5,241.5C 195.5,241.5 191.5,241.5 187.5,241.5C 187.882,234.189 189.215,227.189 191.5,220.5C 190.74,226.804 190.407,233.137 190.5,239.5C 191.5,239.5 192.5,239.5 193.5,239.5C 193.163,235.692 193.663,232.026 195,228.5C 195.333,231.167 195.667,233.833 196,236.5C 196.333,235.833 196.667,235.167 197,234.5C 197.479,229.7 197.146,225.034 196,220.5C 198.021,223.286 199.521,222.953 200.5,219.5C 200.833,220 201.167,220.5 201.5,221C 200.606,222.396 199.939,223.896 199.5,225.5C 199.747,226.713 200.414,227.38 201.5,227.5 Z"/></g>
<g><path style="opacity:1" fill="#5694d5" d="M 286.5,215.5 C 287.624,217.792 288.957,219.958 290.5,222C 290.265,222.873 289.931,223.707 289.5,224.5C 292.386,225.931 294.053,228.264 294.5,231.5C 292.288,237.787 290.955,237.787 290.5,231.5C 288.64,232.071 286.973,232.071 285.5,231.5C 281.943,229.52 278.943,226.854 276.5,223.5C 278.994,219.662 282.327,216.995 286.5,215.5 Z"/></g>
<g><path style="opacity:1" fill="#639bce" d="M 262.5,217.5 C 260.833,217.5 259.167,217.5 257.5,217.5C 257.5,219.833 257.5,222.167 257.5,224.5C 261.5,224.5 265.5,224.5 269.5,224.5C 269.5,223.167 269.5,221.833 269.5,220.5C 270.376,220.369 271.043,220.702 271.5,221.5C 270.347,222.687 270.347,223.687 271.5,224.5C 270.599,226.727 268.933,227.727 266.5,227.5C 266.5,228.5 266.5,229.5 266.5,230.5C 265.041,230.567 263.708,230.234 262.5,229.5C 262.657,228.127 262.49,226.793 262,225.5C 260.556,227.155 258.722,227.822 256.5,227.5C 256.5,223.833 256.5,220.167 256.5,216.5C 258.735,216.205 260.735,216.539 262.5,217.5 Z"/></g>
<g><path style="opacity:1" fill="#4890db" d="M 213.5,237.5 C 213.5,238.167 213.5,238.833 213.5,239.5C 209.936,240.423 206.269,240.756 202.5,240.5C 202.5,238.833 202.5,237.167 202.5,235.5C 203.843,223.814 208.677,213.814 217,205.5C 219.767,207.758 221.934,210.425 223.5,213.5C 220.177,218.138 217.343,223.138 215,228.5C 214.304,231.478 213.804,234.478 213.5,237.5 Z"/></g>
<g><path style="opacity:1" fill="#5d92cc" d="M 238.5,230.5 C 237.833,230.167 237.167,229.833 236.5,229.5C 235.602,228.842 234.602,228.176 233.5,227.5C 234.348,225.717 235.681,225.217 237.5,226C 238.833,227.333 240.167,228.667 241.5,230C 240.552,230.483 239.552,230.649 238.5,230.5 Z"/></g>
<g><path style="opacity:1" fill="#8ba5c4" d="M 272.5,225.5 C 276.5,224.833 278.167,226.5 277.5,230.5C 276.325,230.719 275.325,230.386 274.5,229.5C 275.538,226.212 274.872,225.879 272.5,228.5C 271.438,227.575 271.438,226.575 272.5,225.5 Z"/></g>
<g><path style="opacity:1" fill="#b6daf6" d="M 285.5,220.5 C 286.376,220.369 287.043,220.702 287.5,221.5C 286.289,222.72 286.289,223.887 287.5,225C 286.123,226.241 284.79,226.408 283.5,225.5C 284.174,223.805 284.841,222.138 285.5,220.5 Z"/></g>
<g><path style="opacity:1" fill="#4a90da" d="M 249.5,227.5 C 248.833,228.5 248.167,229.5 247.5,230.5C 246.5,230.5 245.5,230.5 244.5,230.5C 242.372,227.87 240.039,225.37 237.5,223C 239.736,220.716 242.402,219.216 245.5,218.5C 247.92,218.708 250.253,218.374 252.5,217.5C 253.484,220.428 253.817,223.428 253.5,226.5C 251.901,226.232 250.568,226.566 249.5,227.5 Z"/></g>
<g><path style="opacity:1" fill="#4a8fda" d="M 262.5,217.5 C 265.157,217.935 267.491,218.935 269.5,220.5C 269.5,221.833 269.5,223.167 269.5,224.5C 265.5,224.5 261.5,224.5 257.5,224.5C 257.5,222.167 257.5,219.833 257.5,217.5C 259.167,217.5 260.833,217.5 262.5,217.5 Z"/></g>
<g><path style="opacity:1" fill="#5694d0" d="M 301.5,220.5 C 305.386,221.554 307.386,224.22 307.5,228.5C 306.142,226.482 304.475,224.649 302.5,223C 301.207,222.51 299.873,222.343 298.5,222.5C 298.5,223.5 298.5,224.5 298.5,225.5C 297.849,224.909 297.182,224.243 296.5,223.5C 295.818,224.243 295.151,224.909 294.5,225.5C 294.443,224.391 294.11,223.391 293.5,222.5C 293.721,219.903 294.221,219.903 295,222.5C 295.561,219.522 294.561,217.189 292,215.5C 291.805,216.819 291.972,218.153 292.5,219.5C 291,218.375 289.667,217.041 288.5,215.5C 287.766,214.292 287.433,212.959 287.5,211.5C 287.897,210.475 288.563,210.308 289.5,211C 293.751,213.945 297.751,217.112 301.5,220.5 Z"/></g>
<g><path style="opacity:1" fill="#85bce2" d="M 293.5,222.5 C 292.596,221.791 292.263,220.791 292.5,219.5C 291.972,218.153 291.805,216.819 292,215.5C 294.561,217.189 295.561,219.522 295,222.5C 294.221,219.903 293.721,219.903 293.5,222.5 Z"/></g>
<g><path style="opacity:1" fill="#6191c7" d="M 249.5,227.5 C 250.568,226.566 251.901,226.232 253.5,226.5C 253.817,223.428 253.484,220.428 252.5,217.5C 250.253,218.374 247.92,218.708 245.5,218.5C 248.123,216.735 251.123,216.068 254.5,216.5C 254.5,220.167 254.5,223.833 254.5,227.5C 252.833,227.5 251.167,227.5 249.5,227.5 Z"/></g>
<g><path style="opacity:1" fill="#478fdb" d="M 322.5,234.5 C 322.5,236.5 322.5,238.5 322.5,240.5C 320.076,240.808 317.743,240.474 315.5,239.5C 314.184,236.616 313.184,233.616 312.5,230.5C 311.818,231.243 311.151,231.909 310.5,232.5C 308.647,226.274 306.647,220.274 304.5,214.5C 303.25,212.068 301.75,209.734 300,207.5C 297.444,206.781 296.277,205.114 296.5,202.5C 299.147,200.189 301.814,197.856 304.5,195.5C 315.076,206.322 321.076,219.322 322.5,234.5 Z"/></g>
<g><path style="opacity:1" fill="#f5fafa" d="M 291.5,196.5 C 292.728,197.306 293.728,198.306 294.5,199.5C 294.782,200.778 295.449,201.778 296.5,202.5C 296.277,205.114 297.444,206.781 300,207.5C 301.75,209.734 303.25,212.068 304.5,214.5C 305.15,216.435 305.483,218.435 305.5,220.5C 304.167,220.5 302.833,220.5 301.5,220.5C 297.751,217.112 293.751,213.945 289.5,211C 288.563,210.308 287.897,210.475 287.5,211.5C 286.596,212.209 286.263,213.209 286.5,214.5C 284.801,214.473 283.467,213.806 282.5,212.5C 281.306,211.728 280.306,210.728 279.5,209.5C 279.918,208.778 280.584,208.278 281.5,208C 281.272,207.601 280.938,207.435 280.5,207.5C 280.328,206.508 280.662,205.842 281.5,205.5C 282.29,206.401 283.29,207.068 284.5,207.5C 285.645,211.308 286.978,211.141 288.5,207C 288.43,206.235 288.097,205.735 287.5,205.5C 286.432,204.566 285.099,204.232 283.5,204.5C 282.607,201.186 281.274,198.186 279.5,195.5C 280.152,194.275 281.319,193.608 283,193.5C 285.907,194.226 288.74,195.226 291.5,196.5 Z"/></g>
<g><path style="opacity:1" fill="#438edf" d="M 209.5,198.5 C 210.167,198.5 210.5,198.833 210.5,199.5C 210.92,201.094 211.586,202.594 212.5,204C 210.672,205.663 209.005,207.496 207.5,209.5C 206.833,209.167 206.167,208.833 205.5,208.5C 204.231,210.695 204.231,212.861 205.5,215C 203.808,216.401 203.141,218.234 203.5,220.5C 203.279,223.067 202.612,225.401 201.5,227.5C 200.414,227.38 199.747,226.713 199.5,225.5C 199.939,223.896 200.606,222.396 201.5,221C 201.167,220.5 200.833,220 200.5,219.5C 199.521,222.953 198.021,223.286 196,220.5C 197.146,225.034 197.479,229.7 197,234.5C 196.667,235.167 196.333,235.833 196,236.5C 195.667,233.833 195.333,231.167 195,228.5C 193.663,232.026 193.163,235.692 193.5,239.5C 192.5,239.5 191.5,239.5 190.5,239.5C 190.407,233.137 190.74,226.804 191.5,220.5C 191.402,218.447 192.069,216.78 193.5,215.5C 196.363,211.19 199.363,206.857 202.5,202.5C 203.086,202.709 203.586,203.043 204,203.5C 204.949,199.622 206.115,199.622 207.5,203.5C 208.95,202.15 209.617,200.484 209.5,198.5 Z"/></g>
<g><path style="opacity:1" fill="#4c90d5" d="M 210.5,199.5 C 212.296,200.793 213.963,202.293 215.5,204C 210.622,208.948 206.622,214.448 203.5,220.5C 203.141,218.234 203.808,216.401 205.5,215C 204.231,212.861 204.231,210.695 205.5,208.5C 206.167,208.833 206.833,209.167 207.5,209.5C 209.005,207.496 210.672,205.663 212.5,204C 211.586,202.594 210.92,201.094 210.5,199.5 Z"/></g>
<g><path style="opacity:1" fill="#4b90d9" d="M 263.5,202.5 C 269.337,203.753 274.67,206.087 279.5,209.5C 280.306,210.728 281.306,211.728 282.5,212.5C 280.592,216.08 277.926,219.08 274.5,221.5C 269.367,216.933 263.367,214.6 256.5,214.5C 256.5,211.167 256.5,207.833 256.5,204.5C 257.166,207.358 257.833,210.358 258.5,213.5C 260.575,211.936 262.908,210.936 265.5,210.5C 267.747,211.374 270.08,211.708 272.5,211.5C 272.5,210.5 272.5,209.5 272.5,208.5C 270.648,206.531 267.648,205.531 263.5,205.5C 263.5,204.5 263.5,203.5 263.5,202.5 Z"/></g>
<g><path style="opacity:1" fill="#448ee0" d="M 263.5,202.5 C 263.5,203.5 263.5,204.5 263.5,205.5C 267.648,205.531 270.648,206.531 272.5,208.5C 272.5,209.5 272.5,210.5 272.5,211.5C 270.08,211.708 267.747,211.374 265.5,210.5C 262.908,210.936 260.575,211.936 258.5,213.5C 257.833,210.358 257.166,207.358 256.5,204.5C 258.279,202.656 260.612,201.99 263.5,202.5 Z"/></g>
<g><path style="opacity:1" fill="#4a90da" d="M 244.5,202.5 C 247.833,202.5 251.167,202.5 254.5,202.5C 254.5,206.5 254.5,210.5 254.5,214.5C 247.633,214.6 241.633,216.933 236.5,221.5C 233.349,218.85 230.349,216.016 227.5,213C 232.594,208.459 238.261,204.959 244.5,202.5 Z"/></g>
<g><path style="opacity:1" fill="#5d91c7" d="M 287.5,205.5 C 288.097,205.735 288.43,206.235 288.5,207C 286.978,211.141 285.645,211.308 284.5,207.5C 284.821,205.952 285.821,205.285 287.5,205.5 Z"/></g>
<g><path style="opacity:1" fill="#9ac4d7" d="M 283.5,204.5 C 285.099,204.232 286.432,204.566 287.5,205.5C 285.821,205.285 284.821,205.952 284.5,207.5C 283.29,207.068 282.29,206.401 281.5,205.5C 282.492,205.672 283.158,205.338 283.5,204.5 Z"/></g>
<g><path style="opacity:1" fill="#98c1e1" d="M 281.5,205.5 C 280.662,205.842 280.328,206.508 280.5,207.5C 278.088,207.306 277.088,205.973 277.5,203.5C 277.369,202.761 277.536,202.094 278,201.5C 279.376,202.705 280.542,204.038 281.5,205.5 Z"/></g>
<g><path style="opacity:1" fill="#6ea4d5" d="M 271.5,198.5 C 272.797,200.161 274.13,201.828 275.5,203.5C 275.265,204.097 274.765,204.43 274,204.5C 270.692,203.239 267.525,201.906 264.5,200.5C 267.076,200.532 269.409,199.865 271.5,198.5 Z"/></g>
<g><path style="opacity:1" fill="#4b91d6" d="M 209.5,198.5 C 209.617,200.484 208.95,202.15 207.5,203.5C 206.115,199.622 204.949,199.622 204,203.5C 203.586,203.043 203.086,202.709 202.5,202.5C 199.363,206.857 196.363,211.19 193.5,215.5C 196.332,207.83 200.665,201.164 206.5,195.5C 207.855,196.188 208.855,197.188 209.5,198.5 Z"/></g>
<g><path style="opacity:1" fill="#4d91d5" d="M 276.5,193.5 C 277.778,193.782 278.778,194.449 279.5,195.5C 281.274,198.186 282.607,201.186 283.5,204.5C 283.158,205.338 282.492,205.672 281.5,205.5C 280.542,204.038 279.376,202.705 278,201.5C 277.536,202.094 277.369,202.761 277.5,203.5C 276.833,203.5 276.167,203.5 275.5,203.5C 274.13,201.828 272.797,200.161 271.5,198.5C 275.29,198.992 275.956,198.159 273.5,196C 275.119,195.764 276.119,194.931 276.5,193.5 Z"/></g>
<g><path style="opacity:1" fill="#5896d3" d="M 263.5,189.5 C 268.165,190.078 272.499,191.411 276.5,193.5C 274.409,193.682 272.409,193.348 270.5,192.5C 269.304,192.846 269.304,193.346 270.5,194C 268.527,194.495 266.527,194.662 264.5,194.5C 264.5,196.5 264.5,198.5 264.5,200.5C 261.833,200.5 259.167,200.5 256.5,200.5C 256.198,197.941 256.532,195.607 257.5,193.5C 257.5,195.5 257.5,197.5 257.5,199.5C 259.5,199.5 261.5,199.5 263.5,199.5C 263.5,196.167 263.5,192.833 263.5,189.5 Z"/></g>
<g><path style="opacity:1" fill="#5591ce" d="M 241.5,190.5 C 241.196,191.15 240.863,191.817 240.5,192.5C 232.735,194.302 226.402,198.302 221.5,204.5C 222.127,205.417 222.461,206.417 222.5,207.5C 219.984,206.4 218.984,204.733 219.5,202.5C 225.959,196.937 233.292,192.937 241.5,190.5 Z"/></g>
<g><path style="opacity:1" fill="#428fe2" d="M 276.5,193.5 C 276.119,194.931 275.119,195.764 273.5,196C 275.956,198.159 275.29,198.992 271.5,198.5C 269.409,199.865 267.076,200.532 264.5,200.5C 264.5,198.5 264.5,196.5 264.5,194.5C 266.527,194.662 268.527,194.495 270.5,194C 269.304,193.346 269.304,192.846 270.5,192.5C 272.409,193.348 274.409,193.682 276.5,193.5 Z"/></g>
<g><path style="opacity:1" fill="#4890db" d="M 222.5,207.5 C 222.461,206.417 222.127,205.417 221.5,204.5C 226.402,198.302 232.735,194.302 240.5,192.5C 240.863,191.817 241.196,191.15 241.5,190.5C 245.812,189.752 250.146,189.086 254.5,188.5C 254.5,192.5 254.5,196.5 254.5,200.5C 243.624,200.272 234.291,203.939 226.5,211.5C 224.812,210.479 223.479,209.145 222.5,207.5 Z"/></g>
<g><path style="opacity:1" fill="#4890db" d="M 263.5,189.5 C 263.5,192.833 263.5,196.167 263.5,199.5C 261.5,199.5 259.5,199.5 257.5,199.5C 257.5,197.5 257.5,195.5 257.5,193.5C 256.334,191.834 256.334,190.167 257.5,188.5C 259.409,189.348 261.409,189.682 263.5,189.5 Z"/></g>
<g><path style="opacity:1" fill="#679ecf" d="M 291.5,195.5 C 290.027,194.928 288.693,194.095 287.5,193C 283.204,192.924 279.204,192.091 275.5,190.5C 276.695,190.322 277.862,189.989 279,189.5C 280.092,190.296 281.259,190.963 282.5,191.5C 287.354,189.177 290.354,190.51 291.5,195.5 Z"/></g>
<g><path style="opacity:1" fill="#478fdc" d="M 240.5,176.5 C 239.737,177.268 238.737,177.768 237.5,178C 240.55,178.679 243.55,179.512 246.5,180.5C 247.386,181.325 247.719,182.325 247.5,183.5C 248.5,183.5 249.5,183.5 250.5,183.5C 250.343,182.127 250.51,180.793 251,179.5C 251.422,181.355 251.922,183.189 252.5,185C 252.836,186.03 253.503,186.53 254.5,186.5C 240.131,187.263 227.631,192.596 217,202.5C 213.414,199.616 210.748,196.283 209,192.5C 218.068,184.382 228.568,179.049 240.5,176.5 Z"/></g>
<g><path style="opacity:1" fill="#a5cfea" d="M 263.5,180.5 C 271.278,180.573 271.278,181.406 263.5,183C 262.934,183.995 262.267,184.828 261.5,185.5C 260.602,184.842 259.602,184.176 258.5,183.5C 259.947,182.065 261.614,181.065 263.5,180.5 Z"/></g>
<g><path style="opacity:1" fill="#4990dc" d="M 273.5,177.5 C 284.274,180.113 293.774,185.113 302,192.5C 301.03,196.3 298.53,198.633 294.5,199.5C 293.728,198.306 292.728,197.306 291.5,196.5C 291.5,196.167 291.5,195.833 291.5,195.5C 290.354,190.51 287.354,189.177 282.5,191.5C 281.259,190.963 280.092,190.296 279,189.5C 277.862,189.989 276.695,190.322 275.5,190.5C 271.761,189.697 268.095,188.697 264.5,187.5C 263.5,186.833 262.5,186.167 261.5,185.5C 262.267,184.828 262.934,183.995 263.5,183C 271.278,181.406 271.278,180.573 263.5,180.5C 261.533,180.261 259.699,180.594 258,181.5C 257.505,179.527 257.338,177.527 257.5,175.5C 262.82,176.26 268.153,176.927 273.5,177.5 Z"/></g>
<g><path style="opacity:1" fill="#6197ce" d="M 273.5,177.5 C 268.153,176.927 262.82,176.26 257.5,175.5C 257.338,177.527 257.505,179.527 258,181.5C 259.699,180.594 261.533,180.261 263.5,180.5C 261.614,181.065 259.947,182.065 258.5,183.5C 259.602,184.176 260.602,184.842 261.5,185.5C 262.5,186.167 263.5,186.833 264.5,187.5C 261.833,187.5 259.167,187.5 256.5,187.5C 256.5,183.167 256.5,178.833 256.5,174.5C 262.46,174.548 268.127,175.548 273.5,177.5 Z"/></g>
<g><path style="opacity:1" fill="#458de1" d="M 240.5,176.5 C 241.167,176.5 241.833,176.5 242.5,176.5C 245.549,177.357 248.549,177.357 251.5,176.5C 252.935,177.947 253.935,179.614 254.5,181.5C 254.5,183.167 254.5,184.833 254.5,186.5C 253.503,186.53 252.836,186.03 252.5,185C 251.922,183.189 251.422,181.355 251,179.5C 250.51,180.793 250.343,182.127 250.5,183.5C 249.5,183.5 248.5,183.5 247.5,183.5C 247.719,182.325 247.386,181.325 246.5,180.5C 243.55,179.512 240.55,178.679 237.5,178C 238.737,177.768 239.737,177.268 240.5,176.5 Z"/></g>
<g><path style="opacity:1" fill="#5b97cf" d="M 254.5,181.5 C 253.935,179.614 252.935,177.947 251.5,176.5C 248.549,177.357 245.549,177.357 242.5,176.5C 246.183,174.75 250.183,174.083 254.5,174.5C 254.5,176.833 254.5,179.167 254.5,181.5 Z"/></g>
<g><path style="opacity:1" fill="#5a95d3" d="M 353.5,266.5 C 353.833,266.5 354.167,266.5 354.5,266.5C 353.899,272.953 351.232,278.453 346.5,283C 347.097,284.062 347.43,285.228 347.5,286.5C 347.66,288.355 346.993,289.688 345.5,290.5C 346.292,289.033 346.292,287.7 345.5,286.5C 343.644,289.19 341.311,291.356 338.5,293C 331.021,296.739 323.688,300.406 316.5,304C 321.213,296.432 323.88,288.265 324.5,279.5C 324.68,283.215 324.346,286.882 323.5,290.5C 323.747,291.713 324.414,292.38 325.5,292.5C 324.588,293.738 324.421,295.072 325,296.5C 329.748,293.209 334.581,290.042 339.5,287C 346.789,281.891 351.456,275.058 353.5,266.5 Z"/></g>
<g><path style="opacity:1" fill="#488fdb" d="M 245.5,294.5 C 242.156,292.682 238.489,291.682 234.5,291.5C 228.368,289.264 223.035,285.764 218.5,281C 221.036,280.814 223.369,280.314 225.5,279.5C 227.167,279.5 228.833,279.5 230.5,279.5C 230.351,278.448 230.517,277.448 231,276.5C 237.864,281.844 245.697,284.511 254.5,284.5C 254.5,288.167 254.5,291.833 254.5,295.5C 251.287,295.81 248.287,295.477 245.5,294.5 Z"/></g>
<g><path style="opacity:1" fill="#4f91d8" d="M 186.5,255.5 C 189.416,267.665 194.749,278.665 202.5,288.5C 200.612,287.725 198.612,287.725 196.5,288.5C 196.5,289.833 196.5,291.167 196.5,292.5C 194.041,286.261 190.541,280.594 186,275.5C 186.773,278.701 187.273,282.035 187.5,285.5C 188.01,288.388 187.344,290.721 185.5,292.5C 184.334,287.769 183.334,283.103 182.5,278.5C 182.5,277.833 182.5,277.167 182.5,276.5C 182.495,272.466 182.162,268.466 181.5,264.5C 182.859,265.007 183.859,266.007 184.5,267.5C 184.833,266.667 185.167,265.833 185.5,265C 184.978,262.79 184.312,260.623 183.5,258.5C 183.833,257.833 184.167,257.167 184.5,256.5C 187.346,265.694 188.012,265.36 186.5,255.5 Z"/></g>
<g><path style="opacity:1" fill="#eef7f9" d="M 324.5,279.5 C 323.88,288.265 321.213,296.432 316.5,304C 323.688,300.406 331.021,296.739 338.5,293C 341.311,291.356 343.644,289.19 345.5,286.5C 346.292,287.7 346.292,289.033 345.5,290.5C 342.573,294.767 339.24,298.767 335.5,302.5C 326.481,308.609 316.481,311.776 305.5,312C 310.255,306.323 313.255,299.823 314.5,292.5C 316.666,287.786 319.166,283.119 322,278.5C 325.176,274.222 326.009,274.556 324.5,279.5 Z"/></g>
<g><path style="opacity:1" fill="#e7f5f9" d="M 181.5,262.5 C 181.5,263.167 181.5,263.833 181.5,264.5C 182.162,268.466 182.495,272.466 182.5,276.5C 181.053,275.378 180.053,273.878 179.5,272C 180.769,269.861 180.769,267.695 179.5,265.5C 179.092,270.451 178.759,275.118 178.5,279.5C 180.318,293.844 181.651,293.51 182.5,278.5C 183.334,283.103 184.334,287.769 185.5,292.5C 186.622,294.052 187.122,295.718 187,297.5C 182.437,293.94 177.604,290.773 172.5,288C 168.964,284.296 165.298,280.796 161.5,277.5C 159.601,273.698 158.267,269.698 157.5,265.5C 157.232,263.901 157.566,262.568 158.5,261.5C 159.32,263.14 160.153,264.807 161,266.5C 167.076,271.905 172.409,277.905 177,284.5C 176.081,274.771 176.748,265.105 179,255.5C 179.698,258.004 180.531,260.337 181.5,262.5 Z"/></g>
<g><path style="opacity:1" fill="#96c5e5" d="M 173.5,264.5 C 173.665,267.85 173.498,271.183 173,274.5C 172.283,273.956 171.783,273.289 171.5,272.5C 172.167,269.833 172.833,267.167 173.5,264.5 Z"/></g>
<g><path style="opacity:1" fill="#5b96d3" d="M 161.5,277.5 C 165.298,280.796 168.964,284.296 172.5,288C 177.604,290.773 182.437,293.94 187,297.5C 187.122,295.718 186.622,294.052 185.5,292.5C 187.344,290.721 188.01,288.388 187.5,285.5C 188.466,293.148 191.466,299.981 196.5,306C 189.169,301.83 181.502,297.83 173.5,294C 170.37,291.872 167.537,289.372 165,286.5C 164.805,287.819 164.972,289.153 165.5,290.5C 163.883,289.962 162.216,289.629 160.5,289.5C 159.725,285.818 161.059,283.318 164.5,282C 162.859,280.871 161.859,279.371 161.5,277.5 Z"/></g>
<g><path style="opacity:1" fill="#478fdd" d="M 245.5,297.5 C 246.568,298.434 247.901,298.768 249.5,298.5C 250.207,301.786 250.54,305.119 250.5,308.5C 246.466,308.495 242.466,308.162 238.5,307.5C 228.783,306.483 221.116,302.15 215.5,294.5C 212.749,295.341 210.582,294.341 209,291.5C 208.333,290.833 208.333,290.167 209,289.5C 211.887,287.394 214.553,285.061 217,282.5C 225.418,289.685 234.918,294.685 245.5,297.5 Z"/></g>
<g><path style="opacity:1" fill="#689dca" d="M 234.5,291.5 C 238.489,291.682 242.156,292.682 245.5,294.5C 241.466,294.483 237.799,293.483 234.5,291.5 Z"/></g>
<g><path style="opacity:1" fill="#5793d2" d="M 196.5,292.5 C 199.285,291.916 200.952,292.916 201.5,295.5C 200.624,295.369 199.957,295.702 199.5,296.5C 201.651,298.772 203.151,301.439 204,304.5C 205.948,308.613 208.781,311.946 212.5,314.5C 210.735,315.461 208.735,315.795 206.5,315.5C 198.896,315.945 191.562,314.779 184.5,312C 182.91,310.954 181.41,309.787 180,308.5C 179.601,308.728 179.435,309.062 179.5,309.5C 178.646,308.368 178.646,307.035 179.5,305.5C 187.654,309.693 196.32,311.859 205.5,312C 200.866,306.271 197.866,299.771 196.5,292.5 Z"/></g>
<g><path style="opacity:1" fill="#5e94cd" d="M 257.5,284.5 C 257.5,287.833 257.5,291.167 257.5,294.5C 259.833,294.5 262.167,294.5 264.5,294.5C 264.384,291.14 264.051,287.807 263.5,284.5C 265.011,286.476 265.844,288.809 266,291.5C 266.671,292.252 267.504,292.586 268.5,292.5C 268.119,293.931 267.119,294.764 265.5,295C 262.518,295.498 259.518,295.665 256.5,295.5C 256.185,291.629 256.518,287.962 257.5,284.5 Z"/></g>
<g><path style="opacity:1" fill="#428edd" d="M 257.5,284.5 C 259.167,284.5 260.833,284.5 262.5,284.5C 262.833,284.5 263.167,284.5 263.5,284.5C 264.051,287.807 264.384,291.14 264.5,294.5C 262.167,294.5 259.833,294.5 257.5,294.5C 257.5,291.167 257.5,287.833 257.5,284.5 Z"/></g>
<g><path style="opacity:1" fill="#478fdc" d="M 268.5,308.5 C 264.833,308.5 261.167,308.5 257.5,308.5C 257.5,305.167 257.5,301.833 257.5,298.5C 260.385,298.806 263.052,298.473 265.5,297.5C 267.438,295.837 269.772,295.171 272.5,295.5C 272.735,296.097 273.235,296.43 274,296.5C 278.456,294.692 282.29,292.025 285.5,288.5C 288.436,286.745 291.269,284.745 294,282.5C 296.963,284.461 299.629,286.794 302,289.5C 302.667,290.167 302.667,290.833 302,291.5C 292.579,300.461 281.412,306.128 268.5,308.5 Z"/></g>
<g><path style="opacity:1" fill="#5894d4" d="M 245.5,297.5 C 248.5,297.5 251.5,297.5 254.5,297.5C 254.5,301.833 254.5,306.167 254.5,310.5C 248.88,310.306 243.547,309.306 238.5,307.5C 242.466,308.162 246.466,308.495 250.5,308.5C 250.54,305.119 250.207,301.786 249.5,298.5C 247.901,298.768 246.568,298.434 245.5,297.5 Z"/></g>
<g><path style="opacity:1" fill="#eff8f9" d="M 196.5,292.5 C 197.866,299.771 200.866,306.271 205.5,312C 196.32,311.859 187.654,309.693 179.5,305.5C 174.127,301.129 169.461,296.129 165.5,290.5C 164.972,289.153 164.805,287.819 165,286.5C 167.537,289.372 170.37,291.872 173.5,294C 181.502,297.83 189.169,301.83 196.5,306C 191.466,299.981 188.466,293.148 187.5,285.5C 187.273,282.035 186.773,278.701 186,275.5C 190.541,280.594 194.041,286.261 196.5,292.5 Z"/></g>
<g><path style="opacity:1" fill="#5792cc" d="M 265.5,297.5 C 263.052,298.473 260.385,298.806 257.5,298.5C 257.5,301.833 257.5,305.167 257.5,308.5C 261.167,308.5 264.833,308.5 268.5,308.5C 264.702,309.483 260.702,309.817 256.5,309.5C 256.5,305.5 256.5,301.5 256.5,297.5C 259.5,297.5 262.5,297.5 265.5,297.5 Z"/></g>
<g><path style="opacity:1" fill="#4a8edc" d="M 303.5,293.5 C 303.681,295.029 304.014,296.696 304.5,298.5C 303.675,299.386 302.675,299.719 301.5,299.5C 301.5,300.833 301.5,302.167 301.5,303.5C 299.5,305.167 297.5,306.833 295.5,308.5C 294.761,308.631 294.094,308.464 293.5,308C 294.337,306.989 294.67,305.822 294.5,304.5C 292.331,305.781 289.997,306.781 287.5,307.5C 286.5,307.333 285.5,307.167 284.5,307C 286.119,306.764 287.119,305.931 287.5,304.5C 293.144,301.34 298.477,297.673 303.5,293.5 Z"/></g>
<g><path style="opacity:1" fill="#498fdc" d="M 202.5,288.5 C 222.774,309.03 247.108,316.03 275.5,309.5C 279.526,308.479 283.526,308.812 287.5,310.5C 285.234,311.314 282.9,311.814 280.5,312C 282.577,312.192 284.577,312.692 286.5,313.5C 283.914,314.48 281.247,314.813 278.5,314.5C 278.5,315.5 278.5,316.5 278.5,317.5C 273.572,316.416 268.572,315.75 263.5,315.5C 253.671,315.751 243.838,316.085 234,316.5C 232.833,316.167 231.667,315.833 230.5,315.5C 232.078,314.702 233.744,314.202 235.5,314C 230.146,313.609 224.812,313.109 219.5,312.5C 212.843,307.509 206.843,301.843 201.5,295.5C 200.952,292.916 199.285,291.916 196.5,292.5C 196.5,291.167 196.5,289.833 196.5,288.5C 198.612,287.725 200.612,287.725 202.5,288.5 Z"/></g>
<g><path style="opacity:1" fill="#5794d3" d="M 305.5,291.5 C 305.721,292.735 306.388,293.735 307.5,294.5C 306.975,295.192 306.308,295.692 305.5,296C 308.112,296.741 309.778,295.741 310.5,293C 311.793,292.51 313.127,292.343 314.5,292.5C 313.255,299.823 310.255,306.323 305.5,312C 316.481,311.776 326.481,308.609 335.5,302.5C 335.421,303.93 335.754,305.264 336.5,306.5C 334.827,308.523 334.16,310.856 334.5,313.5C 331.619,314.683 328.619,315.683 325.5,316.5C 325.5,316.167 325.5,315.833 325.5,315.5C 328.395,313.798 330.228,311.464 331,308.5C 325.011,312.55 318.511,314.883 311.5,315.5C 306.133,315.641 300.799,315.808 295.5,316C 298.88,314.629 301.713,312.462 304,309.5C 305.966,305.374 308.132,301.374 310.5,297.5C 310.333,297.167 310.167,296.833 310,296.5C 307.002,298.668 304.169,301.001 301.5,303.5C 301.5,302.167 301.5,300.833 301.5,299.5C 302.675,299.719 303.675,299.386 304.5,298.5C 304.014,296.696 303.681,295.029 303.5,293.5C 303.833,292.5 304.5,291.833 305.5,291.5 Z"/></g>
<g><path style="opacity:1" fill="#d1eaf8" d="M 325.5,315.5 C 321.031,315.086 316.364,315.086 311.5,315.5C 318.511,314.883 325.011,312.55 331,308.5C 330.228,311.464 328.395,313.798 325.5,315.5 Z"/></g>
<g><path style="opacity:1" fill="#f0f9fa" d="M 201.5,295.5 C 206.843,301.843 212.843,307.509 219.5,312.5C 222.867,315.494 226.867,317.327 231.5,318C 225.438,319.079 219.438,320.412 213.5,322C 207.418,322.788 201.418,322.621 195.5,321.5C 189.09,318.959 183.757,314.959 179.5,309.5C 179.435,309.062 179.601,308.728 180,308.5C 181.41,309.787 182.91,310.954 184.5,312C 191.562,314.779 198.896,315.945 206.5,315.5C 210.664,316.611 214.997,317.111 219.5,317C 217.146,316.153 214.812,315.32 212.5,314.5C 208.781,311.946 205.948,308.613 204,304.5C 203.151,301.439 201.651,298.772 199.5,296.5C 199.957,295.702 200.624,295.369 201.5,295.5 Z"/></g>
<g><path style="opacity:1" fill="#94b2d4" d="M 212.5,314.5 C 214.812,315.32 217.146,316.153 219.5,317C 214.997,317.111 210.664,316.611 206.5,315.5C 208.735,315.795 210.735,315.461 212.5,314.5 Z"/></g>
<g><path style="opacity:1" fill="#f0f9fa" d="M 311.5,315.5 C 316.364,315.086 321.031,315.086 325.5,315.5C 325.5,315.833 325.5,316.167 325.5,316.5C 321.983,318.424 318.316,320.091 314.5,321.5C 309.562,322.392 304.562,322.726 299.5,322.5C 292.711,321.637 286.045,320.137 279.5,318C 285.99,316.596 291.323,313.429 295.5,308.5C 297.5,306.833 299.5,305.167 301.5,303.5C 304.169,301.001 307.002,298.668 310,296.5C 310.167,296.833 310.333,297.167 310.5,297.5C 308.132,301.374 305.966,305.374 304,309.5C 301.713,312.462 298.88,314.629 295.5,316C 300.799,315.808 306.133,315.641 311.5,315.5 Z"/></g>
<g><path style="opacity:1" fill="#e3f2f9" d="M 271.5,318.5 C 268.15,318.335 264.817,318.502 261.5,319C 263.058,319.21 264.391,319.71 265.5,320.5C 263.801,320.34 262.134,320.506 260.5,321C 268.79,324.462 275.79,329.629 281.5,336.5C 280.307,338.384 278.641,338.884 276.5,338C 274.229,335.218 271.563,333.051 268.5,331.5C 267.089,329.086 265.089,327.419 262.5,326.5C 260.487,324.503 258.154,322.836 255.5,321.5C 246.994,326.084 239.66,332.084 233.5,339.5C 232.833,339.5 232.167,339.5 231.5,339.5C 231.489,337.983 230.823,336.816 229.5,336C 235.363,329.48 242.363,324.48 250.5,321C 247.445,320.366 244.445,320.532 241.5,321.5C 240.01,319.72 238.01,319.054 235.5,319.5C 238.186,318.009 241.186,317.343 244.5,317.5C 253.653,317.873 262.653,318.206 271.5,318.5 Z"/></g>
<g><path style="opacity:1" fill="#75a9d8" d="M 314.5,321.5 C 315.968,322.779 316.635,324.446 316.5,326.5C 315.041,326.433 313.708,326.766 312.5,327.5C 311.791,326.596 310.791,326.263 309.5,326.5C 310.718,325.839 312.051,325.172 313.5,324.5C 308.683,323.833 304.017,323.166 299.5,322.5C 304.562,322.726 309.562,322.392 314.5,321.5 Z"/></g>
<g><path style="opacity:1" fill="#5492d4" d="M 287.5,304.5 C 287.119,305.931 286.119,306.764 284.5,307C 285.5,307.167 286.5,307.333 287.5,307.5C 289.997,306.781 292.331,305.781 294.5,304.5C 294.67,305.822 294.337,306.989 293.5,308C 294.094,308.464 294.761,308.631 295.5,308.5C 291.323,313.429 285.99,316.596 279.5,318C 286.045,320.137 292.711,321.637 299.5,322.5C 304.017,323.166 308.683,323.833 313.5,324.5C 312.051,325.172 310.718,325.839 309.5,326.5C 305.253,327.602 300.92,327.768 296.5,327C 288.346,323.587 280.012,320.754 271.5,318.5C 262.653,318.206 253.653,317.873 244.5,317.5C 241.186,317.343 238.186,318.009 235.5,319.5C 228.363,321.491 221.363,323.991 214.5,327C 208.164,328.221 202.164,327.387 196.5,324.5C 195.537,324.97 195.537,325.637 196.5,326.5C 194.153,325.393 193.82,323.726 195.5,321.5C 201.418,322.621 207.418,322.788 213.5,322C 219.438,320.412 225.438,319.079 231.5,318C 226.867,317.327 222.867,315.494 219.5,312.5C 224.812,313.109 230.146,313.609 235.5,314C 233.744,314.202 232.078,314.702 230.5,315.5C 231.667,315.833 232.833,316.167 234,316.5C 243.838,316.085 253.671,315.751 263.5,315.5C 268.572,315.75 273.572,316.416 278.5,317.5C 278.5,316.5 278.5,315.5 278.5,314.5C 281.247,314.813 283.914,314.48 286.5,313.5C 284.577,312.692 282.577,312.192 280.5,312C 282.9,311.814 285.234,311.314 287.5,310.5C 283.526,308.812 279.526,308.479 275.5,309.5C 279.261,307.462 283.261,305.796 287.5,304.5 Z"/></g>
<g><path style="opacity:1" fill="#f1f9fa" d="M 271.5,318.5 C 280.012,320.754 288.346,323.587 296.5,327C 300.92,327.768 305.253,327.602 309.5,326.5C 310.791,326.263 311.791,326.596 312.5,327.5C 310.463,328.846 308.463,330.18 306.5,331.5C 299.579,333.936 292.579,334.103 285.5,332C 278.945,327.939 272.279,324.106 265.5,320.5C 264.391,319.71 263.058,319.21 261.5,319C 264.817,318.502 268.15,318.335 271.5,318.5 Z"/></g>
<g><path style="opacity:1" fill="#4d90d7" d="M 262.5,326.5 C 261.022,326.238 259.689,326.571 258.5,327.5C 260.275,328.957 262.275,330.124 264.5,331C 261.248,331.791 258.248,331.291 255.5,329.5C 252.835,330.888 251.835,329.888 252.5,326.5C 251.167,326.5 249.833,326.5 248.5,326.5C 248.5,327.5 248.5,328.5 248.5,329.5C 249.675,329.281 250.675,329.614 251.5,330.5C 249.172,331.724 246.839,331.724 244.5,330.5C 242.889,331.32 242.222,332.654 242.5,334.5C 239.041,335.436 236.207,337.436 234,340.5C 233.601,340.272 233.435,339.938 233.5,339.5C 239.66,332.084 246.994,326.084 255.5,321.5C 258.154,322.836 260.487,324.503 262.5,326.5 Z"/></g>
<g><path style="opacity:1" fill="#5893d3" d="M 231.5,339.5 C 230.5,339.5 229.5,339.5 228.5,339.5C 228.852,336.927 228.352,334.594 227,332.5C 226.326,333.578 225.326,334.245 224,334.5C 218.528,335.546 213.028,335.712 207.5,335C 205.937,334.241 204.937,333.074 204.5,331.5C 218.622,335.131 230.956,331.797 241.5,321.5C 244.445,320.532 247.445,320.366 250.5,321C 242.363,324.48 235.363,329.48 229.5,336C 230.823,336.816 231.489,337.983 231.5,339.5 Z"/></g>
<g><path style="opacity:1" fill="#eff8fb" d="M 235.5,319.5 C 238.01,319.054 240.01,319.72 241.5,321.5C 230.956,331.797 218.622,335.131 204.5,331.5C 201.869,329.847 199.203,328.181 196.5,326.5C 195.537,325.637 195.537,324.97 196.5,324.5C 202.164,327.387 208.164,328.221 214.5,327C 221.363,323.991 228.363,321.491 235.5,319.5 Z"/></g>
<g><path style="opacity:1" fill="#5191d5" d="M 265.5,320.5 C 272.279,324.106 278.945,327.939 285.5,332C 292.579,334.103 299.579,333.936 306.5,331.5C 306.38,332.586 305.713,333.253 304.5,333.5C 300.862,334.182 297.195,334.682 293.5,335C 294.308,335.308 294.975,335.808 295.5,336.5C 291.959,337.2 288.459,337.867 285,338.5C 283.542,333.406 282.709,333.739 282.5,339.5C 275.026,341.306 270.359,338.639 268.5,331.5C 271.563,333.051 274.229,335.218 276.5,338C 278.641,338.884 280.307,338.384 281.5,336.5C 275.79,329.629 268.79,324.462 260.5,321C 262.134,320.506 263.801,320.34 265.5,320.5 Z"/></g>
</svg>
